<svg xmlns="http://www.w3.org/2000/svg" viewBox="0 0 200 200" fill="none" stroke="#c5a880" stroke-width="1.8" stroke-linecap="round" stroke-linejoin="round">
  <!-- Outer Ornate Scrollwork Mantling (Left Side) -->
  <path d="M95 38 C80 32, 65 30, 52 38 C40 46, 32 60, 36 78 C38 88, 44 94, 40 102 C36 110, 22 108, 18 96 C14 84, 16 66, 28 50 C40 34, 60 28, 78 30 C86 31, 92 34, 95 38 Z" stroke-width="1.2"/>
  <path d="M44 68 C34 68, 22 76, 26 92 C30 108, 46 116, 58 108 C50 104, 46 92, 50 82" stroke-width="1.2"/>
  <path d="M52 96 C40 104, 36 120, 44 136 C52 152, 70 156, 76 144 C66 140, 60 126, 64 114" stroke-width="1.2"/>
  <path d="M68 126 C56 136, 52 154, 62 170 C72 186, 90 184, 94 168" stroke-width="1.2"/>

  <!-- Outer Ornate Scrollwork Mantling (Right Side) -->
  <path d="M105 38 C120 32, 135 30, 148 38 C160 46, 168 60, 164 78 C162 88, 156 94, 160 102 C164 110, 178 108, 182 96 C186 84, 184 66, 172 50 C160 34, 140 28, 122 30 C114 31, 108 34, 105 38 Z" stroke-width="1.2"/>
  <path d="M156 68 C166 68, 178 76, 174 92 C170 108, 154 116, 142 108 C150 104, 154 92, 150 82" stroke-width="1.2"/>
  <path d="M148 96 C160 104, 164 120, 156 136 C148 152, 130 156, 124 144 C134 140, 140 126, 136 114" stroke-width="1.2"/>
  <path d="M132 126 C144 136, 148 154, 138 170 C128 186, 110 184, 106 168" stroke-width="1.2"/>

  <!-- Additional Ornate Flourishes -->
  <path d="M90 28 C85 24, 76 22, 68 26 C60 30, 58 38, 64 42" stroke-width="1"/>
  <path d="M110 28 C115 24, 124 22, 132 26 C140 30, 142 38, 136 42" stroke-width="1"/>

  <!-- Coronet (Crown) -->
  <path d="M82 40 L78 30 L88 34 L100 24 L112 34 L122 30 L118 40 Z" fill="rgba(197, 168, 128, 0.15)"/>
  <rect x="82" y="40" width="36" height="5" rx="1.5" fill="rgba(197, 168, 128, 0.25)"/>
  <line x1="86" y1="42.5" x2="114" y2="42.5" stroke-width="2"/>

  <!-- Helmet (Helm) -->
  <path d="M86 47 C86 47, 78 55, 78 66 C78 78, 86 84, 100 84 C114 84, 122 78, 122 66 C122 55, 114 47, 114 47 Z" fill="rgba(197, 168, 128, 0.15)"/>
  <!-- Visor Bars (Visier) -->
  <path d="M94 56 C94 56, 96 72, 100 72 C104 72, 106 56, 106 56" stroke-dasharray="1 1"/>
  <line x1="91" y1="58" x2="109" y2="58"/>
  <line x1="93" y1="64" x2="107" y2="64"/>
  <line x1="96" y1="70" x2="104" y2="70"/>
  <line x1="100" y1="47" x2="100" y2="84" stroke-width="1.2"/>
  <circle cx="100" cy="78" r="2.5" fill="#c5a880"/>

  <!-- Shield (Escutcheon) -->
  <path d="M55 84 C55 84, 55 146, 100 180 C145 146, 145 84, 145 84 Z" stroke-width="2.5" fill="rgba(7, 12, 20, 0.95)"/>

  <!-- Griffin Rampant (inside shield) -->
  <g transform="translate(72, 98) scale(0.55)">
    <!-- Wings -->
    <path d="M38 48 C44 32, 58 18, 76 10 C70 28, 62 42, 48 54 M32 44 C38 26, 50 12, 68 6 C60 20, 52 34, 38 44" stroke-width="2.5" stroke-linecap="round"/>
    <!-- Head & Beak -->
    <path d="M24 32 C22 24, 16 18, 8 18 C11 26, 15 32, 21 34" stroke-width="2.5" stroke-linecap="round"/>
    <path d="M9 20 C6 23, 4 26, 2 26 C4 27, 6 29, 9 27" stroke-width="2" stroke-linejoin="round" fill="#c5a880"/>
    <!-- Mane / Ears -->
    <path d="M22 25 L26 15 L28 25 M28 22 L33 16 L33 24" stroke-width="1.8"/>
    <!-- Body -->
    <path d="M24 34 C28 42, 30 52, 24 64 C18 76, 12 80, 14 88 C16 96, 25 100, 30 106 C27 100, 22 94, 24 86 C26 78, 36 70, 32 58" stroke-width="2.5"/>
    <!-- Tail (Ornate Griffin Tail with loop) -->
    <path d="M17 76 C10 70, 2 74, -4 84 C2 92, 10 94, 17 88 C12 84, 8 76, 12 70" stroke-width="2"/>
    <path d="M-4 84 C-8 88, -12 86, -15 80 C-12 76, -8 78, -4 84 Z" fill="#c5a880"/>
    <!-- Legs & Claws -->
    <path d="M24 64 L12 84 L6 86 M14 84 L11 90 M27 62 L38 82 L44 86 M35 82 L38 88" stroke-width="2.5" stroke-linecap="round"/>
    <!-- Front Arms / Talons (Scratching gesture) -->
    <path d="M22 40 L10 42 L4 40 M22 40 L12 50 L8 52" stroke-width="2.5" stroke-linecap="round"/>
  </g>
</svg>
